<svg width="118" height="114" viewBox="0 0 118 114" fill="none" xmlns="http://www.w3.org/2000/svg">
<path d="M0 57V114H59H118V57V0H59H0V57ZM112.979 57V109.25H59H5.02128V57V4.75H59H112.979V57Z" fill="white"/>
<path d="M67.5356 32.2999C62.598 44.3333 58.4973 54.5458 58.3299 55.0208C58.0789 56.0499 66.1129 56.5249 67.1172 55.5749C67.5356 55.1791 69.8789 49.2416 72.3895 42.2749C74.9001 35.3874 77.076 30.2416 77.3271 30.8749C77.4945 31.5083 79.6703 37.5249 82.0136 44.0958L86.4491 56.2083H90.8845C93.3952 56.2083 95.4037 55.8916 95.4037 55.5749C95.4037 55.1791 91.8888 46.3916 87.6207 35.9416C83.2689 25.5708 79.3356 15.6749 78.7498 14.0916C78.164 12.4291 77.4108 10.9249 77.076 10.7666C76.7413 10.5291 72.4732 20.2666 67.5356 32.2999ZM79.9214 26.2833C82.5994 33.0124 82.5994 33.0916 86.5327 42.1958C88.2065 46.0749 89.5455 50.0333 89.5455 50.9041C89.5455 53.7541 88.2065 51.1416 84.859 41.6416C82.9342 36.3374 80.9257 32.1416 79.503 30.5583L77.076 28.1041L74.5654 30.3999C72.7242 32.0624 71.2179 35.0708 69.042 41.0874C65.9455 49.7958 64.8576 52.0916 64.1044 51.3791C63.6859 51.0624 67.4519 41.1666 71.1342 32.8541C71.5526 31.9833 72.1384 30.3999 72.4732 29.2916C73.5611 25.4916 76.0718 20.5833 76.9086 20.5833C77.3271 20.5833 78.6661 23.1958 79.9214 26.2833Z" fill="white"/>
<path d="M39.5008 14.725L39.7519 18.3666L48.3717 18.4458L56.9079 18.6041V14.8041V11.0833H48.037H39.2498L39.5008 14.725Z" fill="white"/>
<path d="M47.7017 35.5457C47.7017 46.8665 47.367 47.4999 40.5046 47.4999H35.9017L36.1528 51.6165L36.4039 55.8124L41.6762 55.654C47.7017 55.4957 52.1372 53.6749 54.7315 50.3499C56.2379 48.4499 56.489 46.7874 56.74 37.129L57.0748 26.1249H52.3883H47.7017V35.5457ZM53.5599 38.2374C53.5599 46.154 52.1372 49.5582 48.0365 51.1415C46.3627 51.7749 44.0195 52.1707 42.7641 52.0915L40.5883 51.7749L43.0989 51.1415C46.6138 50.1915 50.045 46.9457 51.0492 43.6207C51.4677 42.0374 51.8861 38.2374 51.8861 35.229C51.8861 31.3499 52.1372 30.0832 52.723 30.8749C53.1414 31.5082 53.5599 34.8332 53.5599 38.2374Z" fill="white"/>
<path d="M73.8136 60.9583C73.8136 63.0958 74.232 64.1249 74.9852 64.1249C76.3242 64.1249 76.5753 61.2749 75.3199 60.5624C74.9015 60.3249 74.4831 59.6124 74.4831 59.1374C74.4831 58.5833 74.8178 58.6624 75.3199 59.3749C76.0731 60.4041 76.1568 60.4041 76.2405 59.3749C76.3242 58.7416 76.659 59.6124 76.9937 61.3541L77.5795 64.5208L77.7469 61.5124C77.8306 57.9499 79.5043 58.2666 79.5043 61.8291C79.5043 63.0958 79.7554 64.1249 80.1738 64.1249C80.5086 64.1249 80.676 62.6999 80.5086 60.9583C80.1738 57.8708 80.0902 57.7916 76.9937 57.7916C73.7299 57.7916 73.7299 57.7916 73.8136 60.9583Z" fill="white"/>
<path d="M81.3446 60.721C81.512 62.8585 82.0141 63.8085 83.102 63.9668C84.2737 64.2043 84.5247 63.6501 84.5247 61.0376C84.5247 58.2668 84.2737 57.7918 82.7673 57.7918C81.3446 57.7918 81.0935 58.1876 81.3446 60.721Z" fill="white"/>
<path d="M87.6215 58.346C87.2868 58.5835 87.0357 60.0085 87.0357 61.5126C87.0357 63.3335 87.4541 64.1251 88.291 64.1251C89.2116 64.1251 89.5463 63.2543 89.5463 60.9585C89.5463 57.9501 88.8768 57.0793 87.6215 58.346Z" fill="white"/>
<path d="M37.4081 60.2459C30.6293 61.75 25.4407 65.3917 22.3442 70.8542C19.8336 75.2084 19.6662 88.35 22.0932 92.625C26.5286 100.542 33.0563 103.55 47.1159 104.263L56.0705 104.738V90.3292V76H46.8648H37.6591V80.3542V84.7084H42.513H47.2832L47.1159 90.4084L47.0322 96.1875L42.9315 95.8709C37.3244 95.475 33.391 93.4167 31.0478 89.4584C29.374 86.6875 29.1229 85.3417 29.4577 80.75C30.0435 71.0126 34.0605 68.0042 47.3669 67.4501L56.0705 67.0542V63.2542V59.375L48.3712 59.4542C44.1031 59.5334 39.1655 59.85 37.4081 60.2459ZM51.0492 63.3334C51.0492 63.8084 48.7059 64.125 45.6095 64.125C36.9059 64.125 31.1315 67.2917 27.4492 73.9417C26.1102 76.3959 25.8591 78.2167 26.1102 82.8084C26.3612 87.6375 26.7797 89.0625 28.9556 91.9917C31.8846 96.0292 36.7385 98.8 42.0946 99.4334C45.4421 99.9084 46.1953 99.6709 48.0364 97.9292C49.9612 96.1084 50.2123 95.2375 50.2123 90.5667C50.2123 86.1334 49.8776 84.8667 48.3712 83.3625C47.3669 82.3334 45.6932 81.5417 44.6052 81.5417C43.5173 81.5417 42.6804 81.1459 42.6804 80.75C42.6804 80.1959 44.5215 79.9584 47.5343 80.1167L52.3045 80.3542L52.5556 90.3292C52.7229 99.0375 52.5556 100.383 51.3839 100.858C49.1244 101.65 35.9854 99.8292 32.6378 98.1667C24.8549 94.3667 21.4237 84.8667 24.3527 74.9709C25.5244 71.0126 30.2946 66.0251 34.1442 64.8376C39.835 63.0959 51.0492 62.0667 51.0492 63.3334Z" fill="white"/>
<path d="M58.4979 61.1167C58.9163 62.1459 63.017 72.2001 67.6198 83.5209C72.2227 94.8417 76.3234 104.025 76.6581 103.946C77.0766 103.867 91.973 68.5584 92.0567 67.4501C92.0567 67.3709 90.0482 67.2917 87.5376 67.2917H83.1021L80.4241 74.1001C79.0014 77.8209 77.8298 81.3834 77.8298 81.9376C77.8298 82.5709 77.495 83.2042 77.0766 83.4417C76.6581 83.6792 74.3149 78.3751 71.8879 71.6459L67.3688 59.3751H62.5986C57.912 59.3751 57.8284 59.4542 58.4979 61.1167ZM68.7078 73.3084C70.8 78.7709 72.8922 82.7292 74.3149 84.1542L76.6581 86.3709L78.834 84.4709C80.0057 83.4417 81.8468 80.3542 82.8511 77.6626C84.6922 72.9126 86.5333 70.3001 85.5291 73.7834C84.1901 78.6126 77.244 94.6042 76.5745 94.5251C76.0723 94.4459 74.817 92.0709 73.7291 89.3792C72.6411 86.6084 69.8794 79.8792 67.6198 74.3376C65.444 68.8751 63.6028 64.1251 63.6028 63.7292C63.6028 61.5917 65.7787 65.7084 68.7078 73.3084Z" fill="white"/>
</svg>
